{"title":"The Town.2010.DvDRip,H264.Feel-Free","uid":6005691,"size":915989421,"categoryP":"video","categoryS":"movies","magnet":"?xt=urn:btih:83bb3b51ce69cb46d81e1b40c45c7aba8a7f1268&amp;dn=The+Town.2010.DvDRip%2CH264.Feel-Free&amp;tr=udp%3A%2F%2Ftracker.openbittorrent.com%3A80&amp;tr=udp%3A%2F%2Fopen.demonii.com%3A1337&amp;tr=udp%3A%2F%2Ftracker.coppersurfer.tk%3A6969&amp;tr=udp%3A%2F%2Fexodus.desync.com%3A6969","seeders":0,"leechers":0,"uploader":"neon","files":-1,"time":1291313706,"description":"Language: English\nGenre:Crime | Drama | Thriller\n &lt;a href=&quot; http://www.imdb.com/title/tt0840361/&quot; rel=&quot;nofollow&quot; target=&quot;_NEW&quot;&gt; http://www.imdb.com/title/tt0840361/&lt;/a&gt;\nSource:Speed RG-Thanks\n\nGeneral\nComplete name :The Town.2010.DvDRip,H264.Feel-Free\nFormat : MPEG-4\nFormat profile : Base Media\nCodec ID : isom\nFile size : 872 MiB\nDuration : 2h 4mn\nOverall bit rate : 977 Kbps\nVideo #2\nCodec ID : avc1\nCodec ID/Info : Advanced Video Coding\nDuration : 2h 4mn\nBit rate mode : Variable\nBit rate : 811 Kbps\nWidth : 720 pixels\nHeight : 304 pixels\nDisplay aspect ratio : 2.35:1\nFrame rate mode : Constant\nFrame rate : 29.970 fps\nOriginal frame rate : 29.000 fps\nResolution : 24 bits\nColorimetry : 4:2:0\nScan type : Progressive\nBits/(Pixel*Frame) : 0.124\nStream size : 724 MiB (83%)\nAudio #1\nID : 1\nFormat : AAC\nFormat/Info : Advanced Audio Codec\nFormat version : Version 4\nFormat profile : LC\nFormat settings, SBR : No\nCodec ID : 40\nDuration : 2h 4mn\nBit rate mode : Constant\nBit rate : 160 Kbps\nChannel(s) : 2 channels\nChannel positions : L R\nSampling rate : 48.0 KHz\nResolution : 16 bits\nStream size : 143 MiB (16%)\n\nPlot:\nAs he plans his next job, a longtime thief tries to balance his feelings for a bank manager connected to one of his earlier heists, as well as the FBI agent looking to bring him and his crew down\n\n","torrent":{"xt":"urn:btih:83bb3b51ce69cb46d81e1b40c45c7aba8a7f1268","amp;dn":"The+Town.2010.DvDRip%2CH264.Feel-Free","amp;tr":["udp%3A%2F%2Ftracker.openbittorrent.com%3A80","udp%3A%2F%2Fopen.demonii.com%3A1337","udp%3A%2F%2Ftracker.coppersurfer.tk%3A6969","udp%3A%2F%2Fexodus.desync.com%3A6969"],"infoHash":"83bb3b51ce69cb46d81e1b40c45c7aba8a7f1268","infoHashBuffer":{"type":"Buffer","data":[131,187,59,81,206,105,203,70,216,30,27,64,196,92,122,186,138,127,18,104]},"announce":[],"urlList":[]}}